{
    "asset" : {
        "generator" : "Khronos glTF Blender I/O v3.4.50",
        "version" : "2.0"
    },
    "extensionsUsed" : [
        "KHR_materials_specular",
        "KHR_materials_ior"
    ],
    "scene" : 0,
    "scenes" : [
        {
            "name" : "Scene",
            "nodes" : [
                0
            ]
        }
    ],
    "nodes" : [
        {
            "mesh" : 0,
            "name" : "TQ_ARD-node",
            "translation" : [
                0,
                0.06765962392091751,
                0
            ]
        }
    ],
    "materials" : [
        {
            "doubleSided" : true,
            "extensions" : {
                "KHR_materials_specular" : {
                    "specularColorFactor" : [
                        0,
                        0,
                        0
                    ]
                },
                "KHR_materials_ior" : {
                    "ior" : 0
                }
            },
            "name" : "TQ_ARD_front",
            "pbrMetallicRoughness" : {
                "baseColorTexture" : {
                    "index" : 0
                },
                "metallicFactor" : 0,
                "roughnessFactor" : 0.5
            }
        },
        {
            "doubleSided" : true,
            "extensions" : {
                "KHR_materials_specular" : {
                    "specularColorFactor" : [
                        0,
                        0,
                        0
                    ]
                },
                "KHR_materials_ior" : {
                    "ior" : 0
                }
            },
            "name" : "TQ_ARD_back",
            "pbrMetallicRoughness" : {
                "baseColorTexture" : {
                    "index" : 1
                },
                "metallicFactor" : 0,
                "roughnessFactor" : 0.5
            }
        },
        {
            "doubleSided" : true,
            "extensions" : {
                "KHR_materials_specular" : {
                    "specularColorFactor" : [
                        0,
                        0,
                        0
                    ]
                },
                "KHR_materials_ior" : {
                    "ior" : 0
                }
            },
            "name" : "TQ_ARD_edge",
            "pbrMetallicRoughness" : {
                "baseColorTexture" : {
                    "index" : 2
                },
                "metallicFactor" : 0,
                "roughnessFactor" : 0.5
            }
        }
    ],
    "meshes" : [
        {
            "name" : "TQ_ARD-geom",
            "primitives" : [
                {
                    "attributes" : {
                        "POSITION" : 0,
                        "TEXCOORD_0" : 1,
                        "NORMAL" : 2
                    },
                    "indices" : 3,
                    "material" : 0
                },
                {
                    "attributes" : {
                        "POSITION" : 4,
                        "TEXCOORD_0" : 5,
                        "NORMAL" : 6
                    },
                    "indices" : 7,
                    "material" : 1
                },
                {
                    "attributes" : {
                        "POSITION" : 8,
                        "TEXCOORD_0" : 9,
                        "NORMAL" : 10
                    },
                    "indices" : 11,
                    "material" : 2
                }
            ]
        }
    ],
    "textures" : [
        {
            "sampler" : 0,
            "source" : 0
        },
        {
            "sampler" : 0,
            "source" : 1
        },
        {
            "sampler" : 0,
            "source" : 2
        }
    ],
    "images" : [
        {
            "bufferView" : 4,
            "mimeType" : "image/jpeg",
            "name" : "1-01"
        },
        {
            "bufferView" : 9,
            "mimeType" : "image/png",
            "name" : "TQ_ARD-I2"
        },
        {
            "bufferView" : 14,
            "mimeType" : "image/png",
            "name" : "TQ_ARD-I1"
        }
    ],
    "accessors" : [
        {
            "bufferView" : 0,
            "componentType" : 5126,
            "count" : 2252,
            "max" : [
                0.0847596824169159,
                0.066630057990551,
                0.2269495129585266
            ],
            "min" : [
                -0.137947216629982,
                -0.06458044052124023,
                -0.22025813162326813
            ],
            "type" : "VEC3"
        },
        {
            "bufferView" : 1,
            "componentType" : 5126,
            "count" : 2252,
            "type" : "VEC2"
        },
        {
            "bufferView" : 2,
            "componentType" : 5126,
            "count" : 2252,
            "type" : "VEC3"
        },
        {
            "bufferView" : 3,
            "componentType" : 5123,
            "count" : 3906,
            "type" : "SCALAR"
        },
        {
            "bufferView" : 5,
            "componentType" : 5126,
            "count" : 2598,
            "max" : [
                0.08212141692638397,
                0.06502575427293777,
                0.22431126236915588
            ],
            "min" : [
                -0.13637538254261017,
                -0.06194214150309563,
                -0.21761980652809143
            ],
            "type" : "VEC3"
        },
        {
            "bufferView" : 6,
            "componentType" : 5126,
            "count" : 2598,
            "type" : "VEC2"
        },
        {
            "bufferView" : 7,
            "componentType" : 5126,
            "count" : 2598,
            "type" : "VEC3"
        },
        {
            "bufferView" : 8,
            "componentType" : 5123,
            "count" : 3906,
            "type" : "SCALAR"
        },
        {
            "bufferView" : 10,
            "componentType" : 5126,
            "count" : 2927,
            "max" : [
                0.08475961536169052,
                0.066630057990551,
                0.22694946825504303
            ],
            "min" : [
                -0.1379471868276596,
                -0.06458044052124023,
                -0.22025802731513977
            ],
            "type" : "VEC3"
        },
        {
            "bufferView" : 11,
            "componentType" : 5126,
            "count" : 2927,
            "type" : "VEC2"
        },
        {
            "bufferView" : 12,
            "componentType" : 5126,
            "count" : 2927,
            "type" : "VEC3"
        },
        {
            "bufferView" : 13,
            "componentType" : 5123,
            "count" : 5082,
            "type" : "SCALAR"
        }
    ],
    "bufferViews" : [
        {
            "buffer" : 0,
            "byteLength" : 27024,
            "byteOffset" : 0,
            "target" : 34962
        },
        {
            "buffer" : 0,
            "byteLength" : 18016,
            "byteOffset" : 27024,
            "target" : 34962
        },
        {
            "buffer" : 0,
            "byteLength" : 27024,
            "byteOffset" : 45040,
            "target" : 34962
        },
        {
            "buffer" : 0,
            "byteLength" : 7812,
            "byteOffset" : 72064,
            "target" : 34963
        },
        {
            "buffer" : 0,
            "byteLength" : 452444,
            "byteOffset" : 79876
        },
        {
            "buffer" : 0,
            "byteLength" : 31176,
            "byteOffset" : 532320,
            "target" : 34962
        },
        {
            "buffer" : 0,
            "byteLength" : 20784,
            "byteOffset" : 563496,
            "target" : 34962
        },
        {
            "buffer" : 0,
            "byteLength" : 31176,
            "byteOffset" : 584280,
            "target" : 34962
        },
        {
            "buffer" : 0,
            "byteLength" : 7812,
            "byteOffset" : 615456,
            "target" : 34963
        },
        {
            "buffer" : 0,
            "byteLength" : 977908,
            "byteOffset" : 623268
        },
        {
            "buffer" : 0,
            "byteLength" : 35124,
            "byteOffset" : 1601176,
            "target" : 34962
        },
        {
            "buffer" : 0,
            "byteLength" : 23416,
            "byteOffset" : 1636300,
            "target" : 34962
        },
        {
            "buffer" : 0,
            "byteLength" : 35124,
            "byteOffset" : 1659716,
            "target" : 34962
        },
        {
            "buffer" : 0,
            "byteLength" : 10164,
            "byteOffset" : 1694840,
            "target" : 34963
        },
        {
            "buffer" : 0,
            "byteLength" : 223603,
            "byteOffset" : 1705004
        }
    ],
    "samplers" : [
        {
            "magFilter" : 9729,
            "minFilter" : 9987
        }
    ],
    "buffers" : [
        {
            "byteLength" : 1928608,
            "uri" : "data:application/octet-stream;base64,"
        }
    ]
}
